<svg width="164" height="77" viewBox="0 0 164 77" fill="none" xmlns="http://www.w3.org/2000/svg">
<g clip-path="url(#clip0_231_1936)">
<path fill-rule="evenodd" clip-rule="evenodd" d="M4.94995 45.95V66.15H34.33L27.95 62.79H8.30995V49.86L58.02 76.09L59.91 72.51L8.59995 45.95H4.94995ZM58.07 0L8.30995 26.21V13.28H27.72L34.0999 9.92H4.94995V30.12H8.45995L59.91 3.41L58.07 0ZM61.1899 9.92H52.3899L45.91 13.28H57.83V62.81H45.9199L52.4 66.17H61.18V9.92H61.1899Z" fill="black"></path>
<path d="M51.06 35.73H0V39.42H51.06V35.73Z" fill="black"></path>
<path fill-rule="evenodd" clip-rule="evenodd" d="M129.24 64.2299L128.7 65.0599L128.5 64.9599C127.56 64.4999 126.62 64.0499 125.67 63.6199C123.96 64.4299 121.81 64.9599 119.95 65.3299L119.74 65.3699L119.67 65.1699V63.6299C120.96 63.4699 122.51 63.2099 123.73 62.7799C122.78 62.3799 121.83 61.9999 120.88 61.6199L120.59 61.5099L120.77 61.2699C120.93 61.0499 121.09 60.8299 121.24 60.5999H119.41V59.1899H122.16C122.31 58.9499 122.5 58.6299 122.64 58.4499H124.75C124.6 58.6299 124.45 58.9499 124.3 59.1899H129.79V60.4899L129.74 60.5499C129.12 61.3599 128.35 62.0399 127.5 62.6099C128.14 62.8699 128.79 63.1399 129.43 63.4099L129.61 63.4899C130.98 62.4999 132.21 61.3299 133.2 59.9699C132.3 58.1899 131.77 56.1899 131.48 54.2299C131.35 54.4699 131.22 54.5899 131.08 54.8299L131 54.9599L129.71 53.4799L129.69 53.4499L129.66 53.4799H125.98V54.2099H129.69L130.17 54.8299V58.1199H119.99V54.2099H124.11V53.4799H120.03V51.0799H119.12V49.5199H120.03V47.1399H124.11V46.4099H125.99V47.1399H130.14V49.5199L130.99 49.5499V51.1099L130.14 51.0799V52.8999C131.18 50.9099 131.87 48.7899 132.28 46.5899H134.29C133.95 48.1399 133.38 49.5499 133 51.0699H132.97C132.94 51.1399 132.92 51.2199 132.89 51.2899C133.06 53.5399 133.37 55.8699 134.29 57.9599C135.22 55.8399 135.6 53.3399 135.76 51.0699H134.11V49.3499H138.73V51.0699H137.57C137.31 53.9399 136.76 57.4699 135.38 60.0399C136.13 61.1499 137.41 62.3299 138.52 63.0899V64.9099C138.49 64.9599 138.46 65.0199 138.42 65.0699L138.28 65.2999L138.06 65.1499C136.7 64.2099 135.2 63.0699 134.25 61.7499C133.17 63.1599 131.85 64.3699 130.39 65.3999L130.19 65.5399L130.05 65.3399C129.79 64.9699 129.51 64.5999 129.23 64.2399M125.71 61.8999C126.37 61.5299 126.98 61.0899 127.53 60.5799H123.56L123.37 60.8599C124.29 61.1999 124.8 61.5399 125.71 61.8999ZM128.39 55.6799H126V56.7099H128.39V55.6799ZM121.84 56.7099H124.12V55.6799H121.84V56.7099ZM128.39 48.5599H126V49.4999H128.39V48.5599ZM121.84 52.0599H124.12V51.0599H121.84V52.0599ZM121.84 49.4999H124.12V48.5599H121.84V49.4999ZM125.99 52.0599H128.38V51.0599H125.99V52.0599Z" fill="black"></path>
<path fill-rule="evenodd" clip-rule="evenodd" d="M111.76 48.9501H106.85V51.9301H110.85V53.8001H106.86C106.86 54.8701 106.83 55.9401 106.74 57.0001H110.86V58.8701H106.5C106.06 61.4701 104.73 63.4101 102.8 65.2401L102.61 65.4201L102.44 65.2301C102.07 64.8101 101.65 64.4301 101.22 64.0801L101.01 63.9101L101.21 63.7301C102.44 62.6101 103.56 61.5701 104.14 60.0101C104.78 58.3201 104.85 55.6901 104.85 53.9001V47.1101H113.79V62.5301C113.79 64.1101 113.02 65.0101 111.33 65.0101H107.99V63.0601H110.85C111.5 63.0601 111.78 62.7801 111.78 62.1601V48.9601M98.43 61.2101V62.6201H96.49V47.4501H103V61.2101H98.43ZM101.07 59.3201V55.1301H98.43V59.3201H101.07ZM101.07 49.3401H98.43V53.2801H101.07V49.3401Z" fill="black"></path>
<path fill-rule="evenodd" clip-rule="evenodd" d="M150.59 52.3799C151.52 54.9699 152.2 58.1299 152.99 60.7599L153.05 60.9399H150.6V60.8999C149.82 58.0799 149.3 55.1899 148.29 52.4399L148.27 52.3799H150.59Z" fill="black"></path>
<path fill-rule="evenodd" clip-rule="evenodd" d="M153.72 49.1601C153.22 48.3601 152.67 47.3501 152.06 46.6201L152.02 46.5701H154.69C155.09 47.1301 155.47 47.8001 155.86 48.3101L156.01 48.5101L155.03 49.1601H160.81V51.0701H147.13V49.1601H153.72Z" fill="black"></path>
<path fill-rule="evenodd" clip-rule="evenodd" d="M146.04 50.9401V65.2701H144.11V54.8801C143.58 55.8201 143 56.7101 142.38 57.6001L141.35 55.7401L141.3 55.5501L141.37 55.5201C143.08 52.9301 144.47 49.5601 145.36 46.5701H147.6C147.14 48.0001 146.62 49.5801 146.04 50.9401Z" fill="black"></path>
<path fill-rule="evenodd" clip-rule="evenodd" d="M153.88 62.5599C155.03 59.4299 155.95 55.6099 156.81 52.3799H159.18C158.13 55.6099 157.23 59.3399 156.17 62.5599H160.73V64.4299H147.48V62.5599H153.88Z" fill="black"></path>
<path fill-rule="evenodd" clip-rule="evenodd" d="M84.39 51.8101H90.66V59.5701H84.39V57.7601H88.48V53.6301H84.39V51.8201V51.8101Z" fill="black"></path>
<path fill-rule="evenodd" clip-rule="evenodd" d="M80.8399 62.69L79.1999 63.59L79.0799 63.36C78.4199 62.12 77.7199 60.65 76.9799 59.44C76.3799 61.64 75.2999 63.88 73.4999 65.4L73.2999 65.57L73.1399 65.36C72.8299 64.95 72.4899 64.57 72.1199 64.2L71.9399 64.02L72.1299 63.86C74.3999 61.88 75.3199 58.8 75.5799 55.94H72.2299V54.11H75.6999C75.7599 52.95 75.7799 51.78 75.7799 50.62H74.9599C74.5899 51.63 74.1499 52.61 73.6099 53.54L73.4099 53.89L73.1899 53.55C72.8999 53.11 72.5799 52.69 72.2299 52.3L72.1199 52.17L72.1999 52.03C73.2099 50.24 73.8499 48.27 74.2199 46.26H76.1999L76.1799 46.34C76.0099 47.16 75.8099 47.98 75.5699 48.79H80.0999V50.62H77.6999C77.6999 51.78 77.6799 52.95 77.6399 54.11H80.1799V55.94H77.5399C77.4899 56.6 77.4199 57.25 77.2999 57.9L77.9499 57.5L78.0799 57.7C78.9699 59.06 79.9899 60.68 80.8099 62.09V47.09H91.2399V48.92H82.8999V63.09H91.2399V64.93H80.8099V62.68L80.8399 62.69Z" fill="black"></path>
<path d="M131.36 28.3601H126.71V30.3501H131.36V28.3601Z" fill="black"></path>
<path fill-rule="evenodd" clip-rule="evenodd" d="M125.53 30.3799V40.6899H123.31V30.3799H118.3V28.3899H125.57V30.3799H125.53Z" fill="black"></path>
<path fill-rule="evenodd" clip-rule="evenodd" d="M114.69 35.4899H106.97V40.6899H104.81V28.3899H106.97V33.3199H114.69V28.3899H116.88V40.6899H114.69V35.4899Z" fill="black"></path>
<path fill-rule="evenodd" clip-rule="evenodd" d="M100.53 38.4501V35.4301H95.27V33.3701H102.64V40.6801H93.73C92.76 40.6801 91.91 40.3401 91.2 39.6001C90.49 38.8701 90.17 37.9801 90.17 36.9201V32.1301C90.17 31.0701 90.5 30.1801 91.2 29.4501C91.91 28.7101 92.76 28.3701 93.73 28.3701H102.64V30.4901H93.9C93.03 30.4901 92.44 30.9601 92.44 31.9501V36.9801C92.44 37.9701 93.03 38.4401 93.9 38.4401H100.53V38.4501Z" fill="black"></path>
<path d="M88.21 28.3899H86.1V40.6899H88.21V28.3899Z" fill="black"></path>
<path fill-rule="evenodd" clip-rule="evenodd" d="M75.62 38.3899H84.42V40.6899H73.46V28.3899H75.62V38.3899Z" fill="black"></path>
<path fill-rule="evenodd" clip-rule="evenodd" d="M153.93 12.7V15.5H163.14V17.64H153.93V20.73H163.76V22.81H151.71V10.51H163.79V12.7H153.93Z" fill="black"></path>
<path fill-rule="evenodd" clip-rule="evenodd" d="M149.03 22.8099H146.2L139.43 15.1899H142.12L149.03 22.8099Z" fill="black"></path>
<path fill-rule="evenodd" clip-rule="evenodd" d="M138.34 12.54V22.81H136.12V10.51H147.37C151.44 10.51 151.44 18.21 147.37 18.21H146.1L144.16 16.29H147.05C148.57 16.29 148.57 12.54 147.05 12.54H138.34Z" fill="black"></path>
<path fill-rule="evenodd" clip-rule="evenodd" d="M131.86 18.17H124.63V16.36H131.86V13.95C131.86 13.27 131.64 12.59 130.92 12.59H123.31C122.6 12.59 122.39 13.29 122.39 13.95V22.81H120.17V14.17C120.17 12.26 121.36 10.51 123.2 10.51H131.1C132.95 10.51 134.15 12.24 134.15 14.17V22.81H131.87V18.17H131.86Z" fill="black"></path>
<path fill-rule="evenodd" clip-rule="evenodd" d="M118.39 10.51V19.13C118.39 20.11 118.12 20.98 117.52 21.72C116.94 22.44 116.21 22.78 115.34 22.78H107.44C106.56 22.78 105.83 22.45 105.25 21.72C104.66 20.97 104.39 20.11 104.39 19.13V10.51H106.5V19.29C106.5 19.97 106.72 20.65 107.44 20.65H115.34C116.05 20.65 116.26 19.95 116.26 19.29V10.51H118.39Z" fill="black"></path>
<path fill-rule="evenodd" clip-rule="evenodd" d="M97.25 19.34L98.58 17.75L103.74 22.2L102.49 23.85L100.74 22.34C100.21 22.66 99.61 22.81 98.96 22.81H91.92C90.95 22.81 90.1 22.47 89.39 21.73C88.68 21 88.36 20.11 88.36 19.05V14.26C88.36 13.2 88.69 12.31 89.39 11.58C90.1 10.84 90.95 10.5 91.92 10.5H98.96C99.93 10.5 100.78 10.84 101.49 11.58C102.2 12.31 102.52 13.2 102.52 14.26V19.05C102.52 19.3 102.5 19.53 102.47 19.76L100.42 17.89V14.26C100.42 13.27 99.83 12.8 98.96 12.8H91.92C91.05 12.8 90.46 13.27 90.46 14.26V19.05C90.46 20.04 91.05 20.51 91.92 20.51H98.62L97.26 19.33L97.25 19.34Z" fill="black"></path>
<path fill-rule="evenodd" clip-rule="evenodd" d="M72.3 20.52H84.09C84.8 20.52 85.01 19.82 85.01 19.16C85.01 18.5 84.8 17.8 84.09 17.8H75.17C74.28 17.8 73.55 17.44 72.96 16.71C72.37 15.99 72.12 15.13 72.12 14.17C72.12 13.21 72.39 12.32 72.99 11.58C73.57 10.86 74.3 10.52 75.17 10.52H86.56V12.82H75.17C74.46 12.82 74.25 13.52 74.25 14.18C74.25 14.84 74.47 15.51 75.17 15.51H84.09C84.98 15.51 85.71 15.87 86.3 16.6C86.87 17.34 87.12 18.21 87.12 19.17C87.12 20.13 86.87 21 86.3 21.74C85.71 22.47 84.98 22.83 84.1 22.83H72.31V20.53L72.3 20.52Z" fill="black"></path>
</g>
<defs>
<clipPath id="clip0_231_1936">
<rect width="163.79" height="76.09" fill="white"></rect>
</clipPath>
</defs>
</svg>