<svg width="164" height="77" viewBox="0 0 164 77" fill="none" xmlns="http://www.w3.org/2000/svg">
  <g clip-path="url(#clip0_mark_en)">
    <path fill-rule="evenodd" clip-rule="evenodd" d="M4.94995 45.95V66.15H34.33L27.95 62.79H8.30995V49.86L58.02 76.09L59.91 72.51L8.59995 45.95H4.94995ZM58.07 0L8.30995 26.21V13.28H27.72L34.0999 9.92H4.94995V30.12H8.45995L59.91 3.41L58.07 0ZM61.1899 9.92H52.3899L45.91 13.28H57.83V62.81H45.9199L52.4 66.17H61.18V9.92H61.1899Z" fill="black"></path>
    <path d="M51.06 35.73H0V39.42H51.06V35.73Z" fill="black"></path>
    <path d="M131.36 28.3601H126.71V30.3501H131.36V28.3601Z" fill="black"></path>
    <path fill-rule="evenodd" clip-rule="evenodd" d="M125.53 30.3799V40.6899H123.31V30.3799H118.3V28.3899H125.57V30.3799H125.53Z" fill="black"></path>
    <path fill-rule="evenodd" clip-rule="evenodd" d="M114.69 35.4899H106.97V40.6899H104.81V28.3899H106.97V33.3199H114.69V28.3899H116.88V40.6899H114.69V35.4899Z" fill="black"></path>
    <path fill-rule="evenodd" clip-rule="evenodd" d="M100.53 38.4501V35.4301H95.27V33.3701H102.64V40.6801H93.73C92.76 40.6801 91.91 40.3401 91.2 39.6001C90.49 38.8701 90.17 37.9801 90.17 36.9201V32.1301C90.17 31.0701 90.5 30.1801 91.2 29.4501C91.91 28.7101 92.76 28.3701 93.73 28.3701H102.64V30.4901H93.9C93.03 30.4901 92.44 30.9601 92.44 31.9501V36.9801C92.44 37.9701 93.03 38.4401 93.9 38.4401H100.53V38.4501Z" fill="black"></path>
    <path d="M88.21 28.3899H86.1V40.6899H88.21V28.3899Z" fill="black"></path>
    <path fill-rule="evenodd" clip-rule="evenodd" d="M75.62 38.3899H84.42V40.6899H73.46V28.3899H75.62V38.3899Z" fill="black"></path>
    <path fill-rule="evenodd" clip-rule="evenodd" d="M153.93 12.7V15.5H163.14V17.64H153.93V20.73H163.76V22.81H151.71V10.51H163.79V12.7H153.93Z" fill="black"></path>
    <path fill-rule="evenodd" clip-rule="evenodd" d="M149.03 22.8099H146.2L139.43 15.1899H142.12L149.03 22.8099Z" fill="black"></path>
    <path fill-rule="evenodd" clip-rule="evenodd" d="M138.34 12.54V22.81H136.12V10.51H147.37C151.44 10.51 151.44 18.21 147.37 18.21H146.1L144.16 16.29H147.05C148.57 16.29 148.57 12.54 147.05 12.54H138.34Z" fill="black"></path>
    <path fill-rule="evenodd" clip-rule="evenodd" d="M131.86 18.17H124.63V16.36H131.86V13.95C131.86 13.27 131.64 12.59 130.92 12.59H123.31C122.6 12.59 122.39 13.29 122.39 13.95V22.81H120.17V14.17C120.17 12.26 121.36 10.51 123.2 10.51H131.1C132.95 10.51 134.15 12.24 134.15 14.17V22.81H131.87V18.17H131.86Z" fill="black"></path>
    <path fill-rule="evenodd" clip-rule="evenodd" d="M118.39 10.51V19.13C118.39 20.11 118.12 20.98 117.52 21.72C116.94 22.44 116.21 22.78 115.34 22.78H107.44C106.56 22.78 105.83 22.45 105.25 21.72C104.66 20.97 104.39 20.11 104.39 19.13V10.51H106.5V19.29C106.5 19.97 106.72 20.65 107.44 20.65H115.34C116.05 20.65 116.26 19.95 116.26 19.29V10.51H118.39Z" fill="black"></path>
    <path fill-rule="evenodd" clip-rule="evenodd" d="M97.25 19.34L98.58 17.75L103.74 22.2L102.49 23.85L100.74 22.34C100.21 22.66 99.61 22.81 98.96 22.81H91.92C90.95 22.81 90.1 22.47 89.39 21.73C88.68 21 88.36 20.11 88.36 19.05V14.26C88.36 13.2 88.69 12.31 89.39 11.58C90.1 10.84 90.95 10.5 91.92 10.5H98.96C99.93 10.5 100.78 10.84 101.49 11.58C102.2 12.31 102.52 13.2 102.52 14.26V19.05C102.52 19.3 102.5 19.53 102.47 19.76L100.42 17.89V14.26C100.42 13.27 99.83 12.8 98.96 12.8H91.92C91.05 12.8 90.46 13.27 90.46 14.26V19.05C90.46 20.04 91.05 20.51 91.92 20.51H98.62L97.26 19.33L97.25 19.34Z" fill="black"></path>
    <path fill-rule="evenodd" clip-rule="evenodd" d="M72.3 20.52H84.09C84.8 20.52 85.01 19.82 85.01 19.16C85.01 18.5 84.8 17.8 84.09 17.8H75.17C74.28 17.8 73.55 17.44 72.96 16.71C72.37 15.99 72.12 15.13 72.12 14.17C72.12 13.21 72.39 12.32 72.99 11.58C73.57 10.86 74.3 10.52 75.17 10.52H86.56V12.82H75.17C74.46 12.82 74.25 13.52 74.25 14.18C74.25 14.84 74.47 15.51 75.17 15.51H84.09C84.98 15.51 85.71 15.87 86.3 16.6C86.87 17.34 87.12 18.21 87.12 19.17C87.12 20.13 86.87 21 86.3 21.74C85.71 22.47 84.98 22.83 84.1 22.83H72.31V20.53L72.3 20.52Z" fill="black"></path>
  </g>
  <defs>
    <clipPath id="clip0_mark_en">
      <rect width="163.79" height="76.09" fill="white"></rect>
    </clipPath>
  </defs>
</svg>